<svg width="2378" height="1088" viewBox="0 0 2378 1088" fill="none" xmlns="http://www.w3.org/2000/svg">
<g filter="url(#filter0_d_2_37)">
<path d="M27.5 7.8316C27.5 7.8316 33.3117 28.9422 37.0356 42.4688C37.0356 42.4688 -3.66617 766.613 201.048 638.229C321.308 562.81 346.829 305.712 346.829 305.712C346.829 305.712 364.811 557.099 478.726 638.229C675.167 778.135 638.39 42.4688 638.39 42.4688" stroke="url(#paint0_linear_2_37)" stroke-width="55.1568"/>
<path d="M27.5 7.8316C27.5 7.8316 33.3117 28.9422 37.0356 42.4688C37.0356 42.4688 -3.66617 766.613 201.048 638.229C321.308 562.81 346.829 305.712 346.829 305.712C346.829 305.712 364.811 557.099 478.726 638.229C675.167 778.135 638.39 42.4688 638.39 42.4688" stroke="#1D1B1B" stroke-opacity="0.2" stroke-width="55.1568"/>
</g>
<g filter="url(#filter1_d_2_37)">
<path d="M972.06 242.248C761.416 123.151 425.542 354.632 461.86 593.873C495.114 812.936 779.182 951.131 972.06 842.079" stroke="url(#paint1_linear_2_37)" stroke-width="34.473"/>
</g>
<path d="M79.7611 1036.72C79.3015 1032.95 78.9338 1028.86 78.658 1024.45C78.4741 1019.94 78.3822 1015.76 78.3822 1011.9C78.3822 1005.74 78.566 999.857 78.9338 994.25C79.3934 988.55 79.899 982.621 80.4506 976.462C81.0941 970.211 81.7835 963.454 82.519 956.192C83.2544 948.837 83.8979 940.38 84.4494 930.819C85.6445 930.819 87.3452 931.187 89.5514 931.923C91.8496 932.566 94.1479 933.348 96.4461 934.267C98.7443 935.186 100.767 936.151 102.513 937.163C104.26 938.082 105.271 938.863 105.547 939.507C103.984 943.092 102.559 947.826 101.272 953.71C100.077 959.501 99.066 965.844 98.2386 972.739C97.4113 979.633 96.7678 986.712 96.3082 993.974C95.8485 1001.24 95.6187 1008.04 95.6187 1014.38C95.6187 1017.32 95.6647 1020.22 95.7566 1023.07C95.8485 1025.92 95.9864 1028.54 96.1703 1030.93C98.1008 1028.08 100.307 1024.03 102.789 1018.79C105.363 1013.46 107.983 1007.53 110.649 1001.01C113.407 994.48 116.119 987.677 118.785 980.599C121.542 973.428 124.07 966.625 126.369 960.19C128.667 953.664 130.597 947.826 132.16 942.678C133.815 937.438 134.964 933.485 135.607 930.819C136.802 930.819 138.549 931.187 140.847 931.923C143.237 932.566 145.536 933.348 147.742 934.267C150.04 935.186 152.063 936.151 153.809 937.163C155.556 938.082 156.521 938.863 156.705 939.507C155.142 943.092 153.717 947.826 152.43 953.71C151.235 959.501 150.224 965.844 149.397 972.739C148.569 979.633 147.926 986.712 147.466 993.974C147.006 1001.24 146.777 1008.04 146.777 1014.38C146.777 1017.05 146.777 1019.71 146.777 1022.38C146.869 1024.95 147.006 1027.3 147.19 1029.41C150.132 1021.78 153.166 1014.24 156.291 1006.8C159.509 999.26 162.68 992.09 165.806 985.287C168.931 978.392 171.965 972.003 174.907 966.12C177.848 960.145 180.56 954.859 183.042 950.262C185.524 945.574 187.685 941.713 189.523 938.679C191.362 935.646 192.787 933.623 193.798 932.612C195.912 932.888 198.072 933.669 200.279 934.956C202.577 936.151 204.599 937.714 206.346 939.645C203.68 941.759 200.646 945.252 197.245 950.124C193.844 954.905 190.351 960.466 186.765 966.809C183.18 973.152 179.549 979.909 175.872 987.079C172.287 994.25 168.931 1001.24 165.806 1008.04C162.68 1014.84 159.876 1021.18 157.394 1027.07C155.004 1032.95 153.166 1037.69 151.879 1041.27C149.489 1042.37 147.144 1042.93 144.846 1042.93C141.904 1042.56 139.101 1041.82 136.435 1040.72C133.861 1039.62 132.022 1038.28 130.919 1036.72C130.643 1035.25 130.413 1033.55 130.23 1031.62C130.046 1029.6 129.908 1027.62 129.816 1025.69C129.724 1023.76 129.632 1021.92 129.54 1020.17C129.54 1018.33 129.54 1016.77 129.54 1015.49C129.54 1007.3 129.862 998.984 130.505 990.527C131.149 981.977 131.93 972.831 132.85 963.086C130.735 969.337 128.391 976.048 125.817 983.218C123.243 990.389 120.531 997.513 117.681 1004.59C114.924 1011.58 112.074 1018.29 109.132 1024.72C106.282 1031.07 103.479 1036.58 100.721 1041.27C98.3306 1042.37 95.9864 1042.93 93.6882 1042.93C90.7465 1042.56 87.9427 1041.82 85.2768 1040.72C82.7028 1039.62 80.8643 1038.28 79.7611 1036.72ZM234.097 976.738C235.016 976.738 236.073 976.921 237.268 977.289C238.555 977.565 239.704 977.979 240.716 978.53C241.727 978.99 242.554 979.495 243.198 980.047C243.933 980.599 244.301 981.104 244.301 981.564C242.462 985.425 240.762 989.332 239.199 993.285C237.636 997.146 236.303 1000.87 235.2 1004.45C234.097 1008.04 233.223 1011.39 232.58 1014.52C232.028 1017.65 231.753 1020.36 231.753 1022.66C231.753 1025.23 232.028 1027.39 232.58 1029.14C233.132 1030.79 234.051 1031.99 235.338 1032.72C234.235 1033.46 232.81 1034.05 231.063 1034.51C229.317 1034.97 227.754 1035.2 226.375 1035.2C221.411 1035.2 218.929 1031.8 218.929 1025C218.929 1019.76 220.675 1012.59 224.169 1003.49C222.33 1007.72 220.216 1011.72 217.826 1015.49C215.435 1019.16 212.999 1022.43 210.517 1025.28C208.035 1028.13 205.507 1030.47 202.933 1032.31C200.451 1034.05 198.153 1035.11 196.039 1035.48C192.637 1035.3 189.879 1033.69 187.765 1030.65C185.651 1027.53 184.594 1023.57 184.594 1018.79C184.594 1013.65 185.697 1008.22 187.903 1002.52C190.109 996.824 192.913 991.538 196.314 986.666C199.808 981.794 203.577 977.749 207.621 974.531C211.666 971.222 215.573 969.475 219.342 969.291C220.262 969.567 221.273 970.119 222.376 970.946C223.571 971.773 224.674 972.739 225.685 973.842C226.788 974.945 227.708 976.094 228.443 977.289C229.179 978.392 229.592 979.357 229.684 980.185C226.007 980.736 222.192 982.529 218.239 985.563C214.378 988.596 210.839 992.273 207.621 996.594C204.496 1000.82 201.922 1005.37 199.9 1010.25C197.877 1015.12 196.866 1019.67 196.866 1023.9C196.866 1025.64 197.509 1026.75 198.796 1027.21C201.462 1026.65 204.542 1024.4 208.035 1020.45C211.528 1016.4 215.757 1010.2 220.721 1001.83C221.641 1000.18 222.652 998.341 223.755 996.318C224.95 994.296 226.145 992.181 227.34 989.975C228.535 987.769 229.684 985.563 230.787 983.356C231.982 981.058 233.086 978.852 234.097 976.738ZM298.868 977.565C298.776 979.312 298.455 981.15 297.903 983.081C297.443 984.919 296.846 986.62 296.11 988.183C295.375 989.653 294.594 990.894 293.766 991.906C292.939 992.917 292.158 993.422 291.422 993.422C290.411 993.331 289.813 992.641 289.63 991.354C289.63 991.078 289.721 990.665 289.905 990.113C290.181 989.47 290.457 988.78 290.733 988.045C291.008 987.309 291.238 986.574 291.422 985.838C291.698 985.103 291.836 984.459 291.836 983.908C291.836 982.621 291.514 981.564 290.871 980.736C290.319 979.817 289.538 979.357 288.526 979.357C284.849 979.357 282.045 981.656 280.115 986.252C278.185 990.848 277.219 997.605 277.219 1006.52C277.219 1007.44 277.265 1007.99 277.357 1008.18C279.288 1008.08 280.988 1008.04 282.459 1008.04C284.022 1007.95 285.539 1007.9 287.01 1007.9C287.102 1008.08 287.148 1008.45 287.148 1009C287.148 1009.83 286.964 1010.43 286.596 1010.8C284.482 1011.26 282.781 1011.67 281.494 1012.04C280.299 1012.31 279.38 1012.59 278.736 1012.87C278.093 1013.14 277.679 1013.46 277.495 1013.83C277.403 1014.11 277.357 1014.52 277.357 1015.07C277.357 1015.81 277.357 1016.54 277.357 1017.28C277.449 1018.01 277.495 1018.93 277.495 1020.04C277.495 1027.76 275.381 1033.96 271.152 1038.65C267.015 1043.34 261.224 1046.05 253.778 1046.79C252.491 1046.69 251.158 1046.33 249.779 1045.68C248.4 1045.04 247.067 1044.21 245.78 1043.2C244.585 1042.19 243.528 1041.04 242.608 1039.75C241.689 1038.56 241.046 1037.32 240.678 1036.03C240.678 1032.54 241.413 1029.23 242.884 1026.1C244.355 1022.89 246.331 1020.08 248.814 1017.69C251.387 1015.21 254.375 1013.23 257.776 1011.76C261.27 1010.2 265.039 1009.28 269.084 1009C269.084 1006.71 268.854 1004.45 268.394 1002.25C267.935 1000.04 267.429 997.927 266.877 995.905C266.418 993.79 265.958 991.768 265.498 989.837C265.039 987.815 264.809 985.838 264.809 983.908C264.809 981.426 265.315 978.99 266.326 976.6C267.337 974.118 268.67 971.865 270.325 969.843C271.979 967.729 273.91 965.936 276.116 964.465C278.322 962.994 280.621 961.983 283.011 961.432C284.022 961.707 285.355 962.535 287.01 963.914C288.756 965.201 290.457 966.671 292.112 968.326C293.766 969.981 295.237 971.681 296.524 973.428C297.811 975.083 298.593 976.462 298.868 977.565ZM253.364 1040.44C255.57 1039.52 257.639 1038.19 259.569 1036.44C261.592 1034.7 263.338 1032.72 264.809 1030.52C266.28 1028.31 267.429 1025.96 268.256 1023.48C269.176 1021 269.635 1018.56 269.635 1016.17C267.797 1016.45 265.774 1017.32 263.568 1018.79C261.362 1020.17 259.293 1021.87 257.363 1023.9C255.432 1025.83 253.824 1027.85 252.537 1029.96C251.25 1032.08 250.606 1033.92 250.606 1035.48C250.606 1037.5 251.525 1039.16 253.364 1040.44ZM298.827 1030.1C298.827 1026.88 299.149 1023.12 299.793 1018.79C300.436 1014.38 301.355 1009.69 302.55 1004.73C303.837 999.766 305.308 994.572 306.963 989.148C308.71 983.724 310.64 978.3 312.754 972.877C314.593 968.004 316.707 963.086 319.098 958.122C321.58 953.158 324.245 948.286 327.095 943.506C329.945 938.725 332.887 934.175 335.92 929.854C339.046 925.534 342.171 921.581 345.297 917.996C346.768 917.996 348.331 918.179 349.985 918.547C351.732 918.915 353.387 919.42 354.949 920.064C356.604 920.615 358.075 921.305 359.362 922.132C360.741 922.96 361.844 923.787 362.671 924.614C355.777 931.693 349.572 938.863 344.056 946.126C338.54 953.296 334.174 960.053 330.956 966.396C329.21 969.889 327.601 973.152 326.13 976.186C324.751 979.22 323.464 982.253 322.269 985.287C321.074 988.229 319.971 991.216 318.96 994.25C318.04 997.192 317.167 1000.32 316.34 1003.63C333.99 981.104 347.09 969.843 355.639 969.843C358.029 969.843 360.603 970.624 363.361 972.187C366.119 973.75 368.555 975.864 370.669 978.53C367.819 981.656 364.878 985.425 361.844 989.837C358.81 994.25 356.007 998.708 353.433 1003.21C350.951 1007.63 348.882 1011.76 347.227 1015.62C345.665 1019.39 344.883 1022.2 344.883 1024.03C344.883 1024.95 345.021 1025.6 345.297 1025.96C345.573 1026.24 346.17 1026.38 347.09 1026.38C348.469 1026.38 349.572 1026.19 350.399 1025.83C351.226 1025.46 351.732 1025.28 351.916 1025.28C352.375 1026.01 352.651 1026.52 352.743 1026.79C352.835 1027.07 352.881 1027.3 352.881 1027.48C352.881 1027.85 352.329 1028.4 351.226 1029.14C350.123 1029.78 348.79 1030.47 347.227 1031.2C345.757 1031.85 344.286 1032.45 342.815 1033C341.344 1033.55 340.241 1033.82 339.506 1033.82C338.586 1033.82 337.667 1033.55 336.748 1033C335.828 1032.54 335.001 1031.89 334.266 1031.07C333.622 1030.24 333.071 1029.32 332.611 1028.31C332.243 1027.3 332.059 1026.24 332.059 1025.14C332.059 1023.76 332.427 1021.74 333.162 1019.07C333.99 1016.31 335.093 1013.14 336.472 1009.56C337.851 1005.88 339.506 1001.88 341.436 997.559C343.367 993.239 345.435 988.826 347.641 984.322C347.641 983.954 347.457 983.77 347.09 983.77C346.814 983.77 346.078 984.138 344.883 984.873C343.78 985.609 342.723 986.344 341.712 987.079C338.402 989.561 335.047 992.641 331.646 996.318C328.336 999.903 325.073 1003.86 321.855 1008.18C318.73 1012.5 315.742 1017.09 312.892 1021.97C310.135 1026.75 307.744 1031.57 305.722 1036.44C305.446 1037.09 305.033 1037.69 304.481 1038.24C303.929 1038.79 303.47 1039.06 303.102 1039.06C302.826 1039.06 302.413 1038.74 301.861 1038.1C301.401 1037.46 300.942 1036.63 300.482 1035.62C300.114 1034.7 299.747 1033.73 299.379 1032.72C299.011 1031.71 298.827 1030.84 298.827 1030.1ZM370.338 1023.21C370.338 1022.38 370.384 1021.37 370.476 1020.17C370.66 1018.89 370.936 1017.23 371.304 1015.21C371.671 1013.1 372.131 1010.57 372.683 1007.63C373.326 1004.68 374.107 1001.14 375.027 997.008C375.211 996.088 375.624 994.618 376.268 992.595C376.911 990.573 377.739 988.458 378.75 986.252C379.853 983.954 381.14 981.748 382.611 979.633C384.174 977.519 386.012 975.956 388.126 974.945C389.689 975.313 391.758 976.278 394.332 977.841C396.906 979.312 399.112 981.38 400.95 984.046C398.836 986.436 397.043 988.826 395.573 991.216C394.194 993.606 392.907 996.088 391.712 998.662C390.609 1001.24 389.551 1003.9 388.54 1006.66C387.621 1009.42 386.564 1012.31 385.369 1015.35C384.357 1017.92 383.438 1020.59 382.611 1023.35C381.783 1026.01 381.324 1028.36 381.232 1030.38C381.232 1032.03 381.186 1033.18 381.094 1033.82C381.094 1034.56 380.864 1034.93 380.405 1034.93C380.037 1034.93 379.301 1034.7 378.198 1034.24C377.095 1033.78 375.946 1033.09 374.751 1032.17C373.648 1031.16 372.637 1029.92 371.717 1028.45C370.798 1026.98 370.338 1025.23 370.338 1023.21ZM396.676 963.362C396.676 962.81 396.814 961.983 397.089 960.88C396.63 960.42 396.216 959.731 395.848 958.812C395.573 957.892 395.435 957.065 395.435 956.33C395.435 955.502 395.527 954.399 395.711 953.02C395.986 951.549 396.308 949.986 396.676 948.332C397.043 946.677 397.503 944.976 398.055 943.23C398.606 941.391 399.158 939.737 399.709 938.266C400.813 938.266 402.145 938.587 403.708 939.231C405.363 939.782 407.018 940.564 408.672 941.575C410.327 942.494 411.844 943.552 413.223 944.747C414.602 945.85 415.659 946.907 416.394 947.918C415.383 948.929 414.05 950.354 412.395 952.193C410.741 953.939 409.132 955.824 407.569 957.846C406.006 959.777 404.582 961.615 403.295 963.362C402.008 965.109 401.18 966.35 400.813 967.085C399.709 966.901 398.744 966.442 397.917 965.706C397.089 964.879 396.676 964.097 396.676 963.362ZM425.127 965.568C427.517 966.304 429.769 967.958 431.883 970.532C433.998 973.014 435.561 975.772 436.572 978.806C435.561 981.288 433.998 984.276 431.883 987.769C429.769 991.262 427.655 994.847 425.54 998.524C423.426 1002.11 421.496 1005.56 419.749 1008.87C418.094 1012.08 417.129 1014.75 416.853 1016.86C418.324 1015.3 419.933 1013.51 421.679 1011.49C423.518 1009.37 425.265 1007.3 426.919 1005.28C428.666 1003.17 430.275 1001.28 431.746 999.628C433.216 997.881 434.366 996.594 435.193 995.767C436.94 993.928 439.008 991.814 441.398 989.424C443.788 986.942 446.27 984.643 448.844 982.529C451.51 980.323 454.176 978.484 456.842 977.013C459.508 975.451 461.944 974.669 464.15 974.669C466.54 974.669 468.517 975.497 470.08 977.151C471.734 978.714 473.021 980.369 473.941 982.115C473.941 982.299 473.573 982.575 472.837 982.943C472.194 983.218 471.229 984.092 469.942 985.563C468.655 987.217 467.184 989.516 465.529 992.457C463.966 995.307 462.404 998.433 460.841 1001.83C459.37 1005.14 458.129 1008.54 457.118 1012.04C456.107 1015.53 455.601 1018.7 455.601 1021.55C455.601 1023.85 455.877 1025.32 456.428 1025.96C457.072 1026.61 457.945 1026.93 459.048 1026.93C460.059 1026.93 461.117 1026.7 462.22 1026.24C463.323 1025.78 464.196 1025.55 464.84 1025.55C465.207 1025.74 465.483 1026.15 465.667 1026.79C465.943 1027.34 466.081 1027.85 466.081 1028.31C465.345 1028.95 464.472 1029.6 463.461 1030.24C462.45 1030.88 461.392 1031.48 460.289 1032.03C459.186 1032.58 458.083 1033.04 456.98 1033.41C455.969 1033.78 455.049 1033.96 454.222 1033.96C451.556 1033.96 449.35 1033.55 447.603 1032.72C445.948 1031.99 444.616 1030.98 443.604 1029.69C442.685 1028.4 442.042 1026.88 441.674 1025.14C441.306 1023.3 441.122 1021.37 441.122 1019.35C441.122 1018.24 441.214 1017 441.398 1015.62C441.582 1014.24 441.95 1012.64 442.501 1010.8C443.053 1008.87 443.834 1006.61 444.845 1004.04C445.857 1001.37 447.144 998.203 448.706 994.526C448.522 994.526 447.281 995.169 444.983 996.456C442.685 997.743 440.203 999.72 437.537 1002.39C433.216 1006.52 429.31 1010.61 425.816 1014.66C422.415 1018.7 418.922 1023.21 415.336 1028.17C413.314 1031.02 411.521 1033.41 409.959 1035.34C408.488 1037.36 407.201 1038.7 406.098 1039.34C404.167 1038.24 402.742 1036.67 401.823 1034.65C400.904 1032.72 400.214 1030.7 399.755 1028.58C399.755 1026.84 399.984 1024.63 400.444 1021.97C400.996 1019.3 401.685 1016.36 402.512 1013.14C403.432 1009.83 404.535 1006.38 405.822 1002.8C407.109 999.214 408.534 995.629 410.097 992.044C413.59 983.954 416.761 977.611 419.611 973.014C422.553 968.418 424.391 965.936 425.127 965.568ZM449.401 1073.54C449.401 1072.99 449.585 1072.48 449.953 1072.02C450.32 1071.56 450.734 1071.1 451.194 1070.64C452.297 1071.65 453.262 1072.43 454.089 1072.99C454.825 1073.54 455.56 1074 456.296 1074.37C456.939 1074.73 457.629 1074.96 458.364 1075.05C459.1 1075.15 459.973 1075.19 460.984 1075.19C465.764 1075.19 470.315 1073.91 474.635 1071.33C478.956 1068.85 483.001 1065.22 486.77 1060.44C490.631 1055.66 494.124 1049.82 497.25 1042.93C500.375 1036.03 503.133 1028.22 505.523 1019.48C504.42 1020.59 503.041 1021.83 501.386 1023.21C499.824 1024.49 498.169 1025.74 496.422 1026.93C494.676 1028.13 492.929 1029.23 491.182 1030.24C489.528 1031.25 488.103 1031.99 486.908 1032.45C485.345 1032.17 483.874 1031.53 482.495 1030.52C481.208 1029.41 480.059 1028.08 479.048 1026.52C478.037 1024.95 477.255 1023.21 476.704 1021.28C476.152 1019.25 475.876 1017.14 475.876 1014.93C475.876 1011.35 476.52 1007.67 477.807 1003.9C479.186 1000.13 480.978 996.456 483.185 992.871C485.391 989.194 487.965 985.746 490.907 982.529C493.94 979.312 497.112 976.508 500.421 974.118C503.823 971.727 507.224 969.843 510.625 968.464C514.118 966.993 517.52 966.258 520.829 966.258C524.047 966.258 526.437 966.947 528 968.326C529.654 969.613 530.849 971.865 531.585 975.083C530.574 974.531 529.287 974.255 527.724 974.255C525.518 974.255 522.944 975.129 520.002 976.875C517.152 978.622 514.21 980.92 511.177 983.77C508.235 986.528 505.293 989.745 502.352 993.422C499.41 997.008 496.79 1000.68 494.492 1004.45C492.286 1008.22 490.447 1011.9 488.976 1015.49C487.597 1019.07 486.908 1022.29 486.908 1025.14C486.908 1025.78 486.954 1026.19 487.046 1026.38C487.138 1026.47 487.276 1026.52 487.459 1026.52C488.287 1026.52 489.39 1026.06 490.769 1025.14C492.24 1024.22 493.848 1023.07 495.595 1021.69C497.434 1020.22 499.318 1018.56 501.249 1016.73C503.179 1014.8 505.018 1012.87 506.764 1010.93C510.717 1006.52 514.302 1001.6 517.52 996.18C520.829 990.665 523.449 985.333 525.38 980.185C527.862 980.369 530.068 980.782 531.998 981.426C533.929 982.069 535.262 982.759 535.997 983.494C532.872 990.665 530.344 996.686 528.413 1001.56C526.575 1006.43 524.966 1010.75 523.587 1014.52C521.105 1021.14 518.761 1027.16 516.555 1032.58C514.44 1038.1 512.234 1043.16 509.936 1047.75C507.729 1052.44 505.293 1056.76 502.627 1060.71C500.054 1064.76 497.112 1068.62 493.802 1072.3C492.24 1074.04 490.447 1075.56 488.425 1076.85C486.494 1078.23 484.472 1079.38 482.357 1080.29C480.335 1081.21 478.313 1081.9 476.29 1082.36C474.36 1082.82 472.567 1083.05 470.912 1083.05C468.706 1083.05 466.454 1082.78 464.156 1082.22C461.857 1081.77 459.743 1081.08 457.813 1080.16C455.79 1079.33 454.044 1078.32 452.573 1077.12C451.102 1076.02 450.045 1074.82 449.401 1073.54ZM546.661 979.633C546.202 979.082 545.788 977.933 545.42 976.186C545.053 974.347 544.869 972.785 544.869 971.498C547.259 971.681 549.557 971.865 551.763 972.049C553.97 972.141 555.992 972.233 557.831 972.325C559.21 969.567 560.68 966.855 562.243 964.189C563.898 961.432 565.461 958.949 566.931 956.743C568.494 954.445 569.919 952.515 571.206 950.952C572.585 949.389 573.642 948.378 574.378 947.918C575.297 947.918 576.446 948.102 577.825 948.47C579.296 948.745 580.767 949.159 582.238 949.711C583.708 950.17 585.041 950.676 586.236 951.228C587.431 951.779 588.259 952.331 588.718 952.882C585.961 956.375 583.57 959.639 581.548 962.673C579.618 965.614 577.503 969.016 575.205 972.877C577.044 972.877 578.882 972.831 580.721 972.739C582.651 972.647 584.582 972.509 586.512 972.325C586.972 972.785 587.34 973.382 587.615 974.118C587.891 974.761 588.029 975.451 588.029 976.186C583.525 977.841 578.055 978.76 571.62 978.944C569.322 983.356 567.253 987.769 565.415 992.181C563.668 996.502 562.151 1000.68 560.864 1004.73C559.669 1008.77 558.704 1012.59 557.969 1016.17C557.325 1019.76 557.003 1022.98 557.003 1025.83C557.003 1029.87 558.52 1032.12 561.554 1032.58C564.312 1032.22 566.931 1031.53 569.414 1030.52C571.896 1029.5 574.102 1028.22 576.032 1026.65C576.584 1027.48 576.906 1028.17 576.998 1028.72C576.446 1029.55 575.481 1030.52 574.102 1031.62C572.815 1032.72 571.39 1033.78 569.827 1034.79C568.264 1035.89 566.748 1036.81 565.277 1037.55C563.806 1038.28 562.703 1038.7 561.967 1038.79C559.669 1038.7 557.371 1038.19 555.073 1037.27C552.775 1036.35 550.66 1035.2 548.73 1033.82C546.891 1032.45 545.374 1030.93 544.179 1029.27C542.984 1027.53 542.387 1025.83 542.387 1024.17C542.387 1021.97 542.662 1019.21 543.214 1015.9C543.858 1012.5 544.731 1008.82 545.834 1004.87C546.937 1000.91 548.224 996.778 549.695 992.457C551.166 988.137 552.775 983.862 554.521 979.633H546.661ZM603.275 1037.27C598.035 1036.72 593.852 1034.42 590.726 1030.38C587.601 1026.33 586.038 1021.18 586.038 1014.93C586.038 1011.26 586.59 1007.44 587.693 1003.49C588.796 999.536 590.359 995.721 592.381 992.044C594.404 988.275 596.794 984.735 599.552 981.426C602.309 978.116 605.297 975.267 608.515 972.877C613.571 969.108 618.305 967.223 622.717 967.223C625.659 968.786 628.555 972.049 631.405 977.013C631.864 977.013 632.278 977.013 632.646 977.013C633.013 976.921 633.427 976.875 633.887 976.875C638.759 976.875 641.195 981.196 641.195 989.837C641.195 995.629 640.23 1001.14 638.299 1006.38C636.461 1011.53 633.841 1016.22 630.439 1020.45C627.13 1024.68 623.131 1028.26 618.443 1031.2C613.846 1034.05 608.79 1036.08 603.275 1037.27ZM610.307 993.836C608.744 995.95 607.274 998.249 605.895 1000.73C604.516 1003.21 603.321 1005.74 602.309 1008.31C601.298 1010.8 600.517 1013.23 599.965 1015.62C599.414 1017.92 599.138 1019.99 599.138 1021.83C599.138 1024.03 599.506 1026.15 600.241 1028.17C600.976 1030.19 601.804 1031.34 602.723 1031.62C606.86 1030.7 610.629 1029 614.03 1026.52C617.524 1023.94 620.511 1020.77 622.993 1017C625.567 1013.23 627.544 1008.96 628.923 1004.18C630.393 999.398 631.129 994.296 631.129 988.872C631.129 986.482 630.991 984.597 630.715 983.218C630.439 981.84 629.98 980.644 629.336 979.633C625.291 980.828 621.66 982.759 618.443 985.425C615.317 988.091 612.605 990.894 610.307 993.836ZM670.208 965.568C672.598 966.304 674.851 967.958 676.965 970.532C679.079 973.014 680.642 975.772 681.653 978.806C680.642 981.288 679.079 984.276 676.965 987.769C674.851 991.262 672.736 994.847 670.622 998.524C668.508 1002.11 666.577 1005.56 664.831 1008.87C663.176 1012.08 662.211 1014.75 661.935 1016.86C663.406 1015.3 665.014 1013.51 666.761 1011.49C668.6 1009.37 670.346 1007.3 672.001 1005.28C673.748 1003.17 675.356 1001.28 676.827 999.628C678.298 997.881 679.447 996.594 680.274 995.767C682.021 993.928 684.089 991.814 686.48 989.424C688.87 986.942 691.352 984.643 693.926 982.529C696.592 980.323 699.258 978.484 701.923 977.013C704.589 975.451 707.025 974.669 709.232 974.669C711.622 974.669 713.598 975.497 715.161 977.151C716.816 978.714 718.103 980.369 719.022 982.115C719.022 982.299 718.654 982.575 717.919 982.943C717.275 983.218 716.31 984.092 715.023 985.563C713.736 987.217 712.265 989.516 710.611 992.457C709.048 995.307 707.485 998.433 705.922 1001.83C704.451 1005.14 703.21 1008.54 702.199 1012.04C701.188 1015.53 700.682 1018.7 700.682 1021.55C700.682 1023.85 700.958 1025.32 701.51 1025.96C702.153 1026.61 703.027 1026.93 704.13 1026.93C705.141 1026.93 706.198 1026.7 707.301 1026.24C708.404 1025.78 709.278 1025.55 709.921 1025.55C710.289 1025.74 710.565 1026.15 710.749 1026.79C711.024 1027.34 711.162 1027.85 711.162 1028.31C710.427 1028.95 709.553 1029.6 708.542 1030.24C707.531 1030.88 706.474 1031.48 705.371 1032.03C704.268 1032.58 703.164 1033.04 702.061 1033.41C701.05 1033.78 700.131 1033.96 699.304 1033.96C696.638 1033.96 694.431 1033.55 692.685 1032.72C691.03 1031.99 689.697 1030.98 688.686 1029.69C687.767 1028.4 687.123 1026.88 686.755 1025.14C686.388 1023.3 686.204 1021.37 686.204 1019.35C686.204 1018.24 686.296 1017 686.48 1015.62C686.663 1014.24 687.031 1012.64 687.583 1010.8C688.134 1008.87 688.916 1006.61 689.927 1004.04C690.938 1001.37 692.225 998.203 693.788 994.526C693.604 994.526 692.363 995.169 690.065 996.456C687.767 997.743 685.284 999.72 682.619 1002.39C678.298 1006.52 674.391 1010.61 670.898 1014.66C667.496 1018.7 664.003 1023.21 660.418 1028.17C658.396 1031.02 656.603 1033.41 655.04 1035.34C653.569 1037.36 652.282 1038.7 651.179 1039.34C649.249 1038.24 647.824 1036.67 646.905 1034.65C645.985 1032.72 645.296 1030.7 644.836 1028.58C644.836 1026.84 645.066 1024.63 645.526 1021.97C646.077 1019.3 646.767 1016.36 647.594 1013.14C648.513 1009.83 649.616 1006.38 650.903 1002.8C652.19 999.214 653.615 995.629 655.178 992.044C658.671 983.954 661.843 977.611 664.693 973.014C667.634 968.418 669.473 965.936 670.208 965.568ZM761.399 1005.42C761.399 998.984 762.135 992.687 763.605 986.528C765.168 980.277 767.328 974.393 770.086 968.878C772.844 963.27 776.108 958.168 779.877 953.572C783.738 948.883 787.92 944.839 792.425 941.437C797.021 938.036 801.893 935.416 807.041 933.577C812.189 931.647 817.475 930.682 822.899 930.682C829.242 930.682 834.16 932.015 837.653 934.68C841.239 937.346 843.031 941.069 843.031 945.85C843.031 947.688 842.755 949.573 842.204 951.503C841.744 953.434 841.009 955.364 839.998 957.295C839.078 959.133 837.975 960.926 836.688 962.673C835.401 964.419 833.976 965.936 832.413 967.223C830.023 966.855 827.955 965.798 826.208 964.051C824.462 962.213 823.359 960.099 822.899 957.708C826.116 955.043 828.644 952.285 830.483 949.435C832.413 946.493 833.379 943.827 833.379 941.437C833.379 937.392 830.851 935.37 825.795 935.37C823.68 935.37 821.474 935.83 819.176 936.749C816.97 937.576 814.717 938.771 812.419 940.334C810.121 941.897 807.869 943.781 805.662 945.988C803.548 948.194 801.572 950.63 799.733 953.296C786.955 971.682 780.566 990.481 780.566 1009.69C780.566 1016.5 781.623 1021.97 783.738 1026.1C785.852 1030.24 788.656 1032.68 792.149 1033.41C796.102 1032.49 801.112 1029.96 807.179 1025.83C813.246 1021.69 819.865 1016.31 827.036 1009.69C827.955 1010.61 828.507 1011.58 828.69 1012.59C826.024 1016.08 823.267 1019.44 820.417 1022.66C817.567 1025.87 814.717 1028.81 811.868 1031.48C809.11 1034.15 806.352 1036.49 803.594 1038.51C800.928 1040.54 798.446 1042.1 796.148 1043.2C784.749 1043.02 776.108 1039.75 770.224 1033.41C764.341 1027.07 761.399 1017.74 761.399 1005.42ZM837.468 1030.1C837.468 1026.88 837.79 1023.12 838.433 1018.79C839.077 1014.38 839.996 1009.69 841.191 1004.73C842.478 999.766 843.949 994.572 845.604 989.148C847.35 983.724 849.281 978.3 851.395 972.877C853.234 968.004 855.348 963.086 857.738 958.122C860.22 953.158 862.886 948.286 865.736 943.506C868.586 938.725 871.527 934.175 874.561 929.854C877.687 925.534 880.812 921.581 883.938 917.996C885.409 917.996 886.971 918.179 888.626 918.547C890.373 918.915 892.027 919.42 893.59 920.064C895.245 920.615 896.716 921.305 898.003 922.132C899.382 922.96 900.485 923.787 901.312 924.614C894.418 931.693 888.212 938.863 882.697 946.126C877.181 953.296 872.814 960.053 869.597 966.396C867.85 969.889 866.242 973.152 864.771 976.186C863.392 979.22 862.105 982.253 860.91 985.287C859.715 988.229 858.612 991.216 857.6 994.25C856.681 997.192 855.808 1000.32 854.98 1003.63C872.631 981.104 885.73 969.843 894.28 969.843C896.67 969.843 899.244 970.624 902.002 972.187C904.759 973.75 907.196 975.864 909.31 978.53C906.46 981.656 903.518 985.425 900.485 989.837C897.451 994.25 894.647 998.708 892.073 1003.21C889.591 1007.63 887.523 1011.76 885.868 1015.62C884.305 1019.39 883.524 1022.2 883.524 1024.03C883.524 1024.95 883.662 1025.6 883.938 1025.96C884.214 1026.24 884.811 1026.38 885.73 1026.38C887.109 1026.38 888.212 1026.19 889.04 1025.83C889.867 1025.46 890.373 1025.28 890.557 1025.28C891.016 1026.01 891.292 1026.52 891.384 1026.79C891.476 1027.07 891.522 1027.3 891.522 1027.48C891.522 1027.85 890.97 1028.4 889.867 1029.14C888.764 1029.78 887.431 1030.47 885.868 1031.2C884.397 1031.85 882.927 1032.45 881.456 1033C879.985 1033.55 878.882 1033.82 878.146 1033.82C877.227 1033.82 876.308 1033.55 875.388 1033C874.469 1032.54 873.642 1031.89 872.906 1031.07C872.263 1030.24 871.711 1029.32 871.252 1028.31C870.884 1027.3 870.7 1026.24 870.7 1025.14C870.7 1023.76 871.068 1021.74 871.803 1019.07C872.631 1016.31 873.734 1013.14 875.113 1009.56C876.492 1005.88 878.146 1001.88 880.077 997.559C882.007 993.239 884.076 988.826 886.282 984.322C886.282 983.954 886.098 983.77 885.73 983.77C885.455 983.77 884.719 984.138 883.524 984.873C882.421 985.609 881.364 986.344 880.353 987.079C877.043 989.561 873.688 992.641 870.286 996.318C866.977 999.903 863.714 1003.86 860.496 1008.18C857.371 1012.5 854.383 1017.09 851.533 1021.97C848.775 1026.75 846.385 1031.57 844.363 1036.44C844.087 1037.09 843.673 1037.69 843.122 1038.24C842.57 1038.79 842.11 1039.06 841.743 1039.06C841.467 1039.06 841.053 1038.74 840.502 1038.1C840.042 1037.46 839.582 1036.63 839.123 1035.62C838.755 1034.7 838.387 1033.73 838.02 1032.72C837.652 1031.71 837.468 1030.84 837.468 1030.1ZM956.414 976.738C957.333 976.738 958.39 976.921 959.585 977.289C960.872 977.565 962.022 977.979 963.033 978.53C964.044 978.99 964.871 979.495 965.515 980.047C966.25 980.599 966.618 981.104 966.618 981.564C964.779 985.425 963.079 989.332 961.516 993.285C959.953 997.146 958.62 1000.87 957.517 1004.45C956.414 1008.04 955.541 1011.39 954.897 1014.52C954.346 1017.65 954.07 1020.36 954.07 1022.66C954.07 1025.23 954.346 1027.39 954.897 1029.14C955.449 1030.79 956.368 1031.99 957.655 1032.72C956.552 1033.46 955.127 1034.05 953.38 1034.51C951.634 1034.97 950.071 1035.2 948.692 1035.2C943.728 1035.2 941.246 1031.8 941.246 1025C941.246 1019.76 942.992 1012.59 946.486 1003.49C944.647 1007.72 942.533 1011.72 940.143 1015.49C937.753 1019.16 935.316 1022.43 932.834 1025.28C930.352 1028.13 927.824 1030.47 925.25 1032.31C922.768 1034.05 920.47 1035.11 918.356 1035.48C914.954 1035.3 912.197 1033.69 910.082 1030.65C907.968 1027.53 906.911 1023.57 906.911 1018.79C906.911 1013.65 908.014 1008.22 910.22 1002.52C912.426 996.824 915.23 991.538 918.632 986.666C922.125 981.794 925.894 977.749 929.939 974.531C933.984 971.222 937.89 969.475 941.66 969.291C942.579 969.567 943.59 970.119 944.693 970.946C945.888 971.773 946.991 972.739 948.003 973.842C949.106 974.945 950.025 976.094 950.76 977.289C951.496 978.392 951.91 979.357 952.001 980.185C948.324 980.736 944.509 982.529 940.556 985.563C936.695 988.596 933.156 992.273 929.939 996.594C926.813 1000.82 924.239 1005.37 922.217 1010.25C920.194 1015.12 919.183 1019.67 919.183 1023.9C919.183 1025.64 919.827 1026.75 921.114 1027.21C923.78 1026.65 926.859 1024.4 930.352 1020.45C933.846 1016.4 938.074 1010.2 943.038 1001.83C943.958 1000.18 944.969 998.341 946.072 996.318C947.267 994.296 948.462 992.181 949.657 989.975C950.852 987.769 952.001 985.563 953.105 983.356C954.3 981.058 955.403 978.852 956.414 976.738ZM944.951 1073.54C944.951 1072.99 945.135 1072.48 945.502 1072.02C945.87 1071.56 946.284 1071.1 946.743 1070.64C947.846 1071.65 948.812 1072.43 949.639 1072.99C950.374 1073.54 951.11 1074 951.845 1074.37C952.489 1074.73 953.178 1074.96 953.914 1075.05C954.649 1075.15 955.522 1075.19 956.534 1075.19C961.314 1075.19 965.864 1073.91 970.185 1071.33C974.506 1068.85 978.55 1065.22 982.319 1060.44C986.18 1055.66 989.674 1049.82 992.799 1042.93C995.925 1036.03 998.683 1028.22 1001.07 1019.48C999.97 1020.59 998.591 1021.83 996.936 1023.21C995.373 1024.49 993.718 1025.74 991.972 1026.93C990.225 1028.13 988.479 1029.23 986.732 1030.24C985.077 1031.25 983.652 1031.99 982.457 1032.45C980.895 1032.17 979.424 1031.53 978.045 1030.52C976.758 1029.41 975.609 1028.08 974.597 1026.52C973.586 1024.95 972.805 1023.21 972.253 1021.28C971.702 1019.25 971.426 1017.14 971.426 1014.93C971.426 1011.35 972.069 1007.67 973.356 1003.9C974.735 1000.13 976.528 996.456 978.734 992.871C980.94 989.194 983.514 985.746 986.456 982.529C989.49 979.312 992.661 976.508 995.971 974.118C999.372 971.727 1002.77 969.843 1006.17 968.464C1009.67 966.993 1013.07 966.258 1016.38 966.258C1019.6 966.258 1021.99 966.947 1023.55 968.326C1025.2 969.613 1026.4 971.865 1027.13 975.083C1026.12 974.531 1024.84 974.255 1023.27 974.255C1021.07 974.255 1018.49 975.129 1015.55 976.875C1012.7 978.622 1009.76 980.92 1006.73 983.77C1003.78 986.528 1000.84 989.745 997.901 993.422C994.96 997.008 992.34 1000.68 990.041 1004.45C987.835 1008.22 985.997 1011.9 984.526 1015.49C983.147 1019.07 982.457 1022.29 982.457 1025.14C982.457 1025.78 982.503 1026.19 982.595 1026.38C982.687 1026.47 982.825 1026.52 983.009 1026.52C983.836 1026.52 984.939 1026.06 986.318 1025.14C987.789 1024.22 989.398 1023.07 991.144 1021.69C992.983 1020.22 994.868 1018.56 996.798 1016.73C998.729 1014.8 1000.57 1012.87 1002.31 1010.93C1006.27 1006.52 1009.85 1001.6 1013.07 996.18C1016.38 990.665 1019 985.333 1020.93 980.185C1023.41 980.369 1025.62 980.782 1027.55 981.426C1029.48 982.069 1030.81 982.759 1031.55 983.494C1028.42 990.665 1025.89 996.686 1023.96 1001.56C1022.12 1006.43 1020.52 1010.75 1019.14 1014.52C1016.65 1021.14 1014.31 1027.16 1012.1 1032.58C1009.99 1038.1 1007.78 1043.16 1005.49 1047.75C1003.28 1052.44 1000.84 1056.76 998.177 1060.71C995.603 1064.76 992.661 1068.62 989.352 1072.3C987.789 1074.04 985.997 1075.56 983.974 1076.85C982.044 1078.23 980.021 1079.38 977.907 1080.29C975.884 1081.21 973.862 1081.9 971.84 1082.36C969.909 1082.82 968.117 1083.05 966.462 1083.05C964.256 1083.05 962.003 1082.78 959.705 1082.22C957.407 1081.77 955.293 1081.08 953.362 1080.16C951.34 1079.33 949.593 1078.32 948.122 1077.12C946.651 1076.02 945.594 1074.82 944.951 1073.54ZM1082.46 976.738C1083.38 976.738 1084.43 976.921 1085.63 977.289C1086.91 977.565 1088.06 977.979 1089.07 978.53C1090.09 978.99 1090.91 979.495 1091.56 980.047C1092.29 980.599 1092.66 981.104 1092.66 981.564C1090.82 985.425 1089.12 989.332 1087.56 993.285C1086 997.146 1084.66 1000.87 1083.56 1004.45C1082.46 1008.04 1081.58 1011.39 1080.94 1014.52C1080.39 1017.65 1080.11 1020.36 1080.11 1022.66C1080.11 1025.23 1080.39 1027.39 1080.94 1029.14C1081.49 1030.79 1082.41 1031.99 1083.7 1032.72C1082.59 1033.46 1081.17 1034.05 1079.42 1034.51C1077.68 1034.97 1076.11 1035.2 1074.73 1035.2C1069.77 1035.2 1067.29 1031.8 1067.29 1025C1067.29 1019.76 1069.03 1012.59 1072.53 1003.49C1070.69 1007.72 1068.57 1011.72 1066.18 1015.49C1063.79 1019.16 1061.36 1022.43 1058.88 1025.28C1056.39 1028.13 1053.87 1030.47 1051.29 1032.31C1048.81 1034.05 1046.51 1035.11 1044.4 1035.48C1041 1035.3 1038.24 1033.69 1036.12 1030.65C1034.01 1027.53 1032.95 1023.57 1032.95 1018.79C1032.95 1013.65 1034.06 1008.22 1036.26 1002.52C1038.47 996.824 1041.27 991.538 1044.67 986.666C1048.17 981.794 1051.94 977.749 1055.98 974.531C1060.03 971.222 1063.93 969.475 1067.7 969.291C1068.62 969.567 1069.63 970.119 1070.74 970.946C1071.93 971.773 1073.03 972.739 1074.04 973.842C1075.15 974.945 1076.07 976.094 1076.8 977.289C1077.54 978.392 1077.95 979.357 1078.04 980.185C1074.37 980.736 1070.55 982.529 1066.6 985.563C1062.74 988.596 1059.2 992.273 1055.98 996.594C1052.86 1000.82 1050.28 1005.37 1048.26 1010.25C1046.24 1015.12 1045.23 1019.67 1045.23 1023.9C1045.23 1025.64 1045.87 1026.75 1047.16 1027.21C1049.82 1026.65 1052.9 1024.4 1056.39 1020.45C1059.89 1016.4 1064.12 1010.2 1069.08 1001.83C1070 1000.18 1071.01 998.341 1072.11 996.318C1073.31 994.296 1074.5 992.181 1075.7 989.975C1076.89 987.769 1078.04 985.563 1079.15 983.356C1080.34 981.058 1081.44 978.852 1082.46 976.738ZM1147.23 977.565C1147.14 979.312 1146.81 981.15 1146.26 983.081C1145.8 984.919 1145.21 986.62 1144.47 988.183C1143.73 989.653 1142.95 990.894 1142.13 991.906C1141.3 992.917 1140.52 993.422 1139.78 993.422C1138.77 993.331 1138.17 992.641 1137.99 991.354C1137.99 991.078 1138.08 990.665 1138.26 990.113C1138.54 989.47 1138.82 988.78 1139.09 988.045C1139.37 987.309 1139.6 986.574 1139.78 985.838C1140.06 985.103 1140.19 984.459 1140.19 983.908C1140.19 982.621 1139.87 981.564 1139.23 980.736C1138.68 979.817 1137.9 979.357 1136.89 979.357C1133.21 979.357 1130.4 981.656 1128.47 986.252C1126.54 990.848 1125.58 997.605 1125.58 1006.52C1125.58 1007.44 1125.62 1007.99 1125.72 1008.18C1127.65 1008.08 1129.35 1008.04 1130.82 1008.04C1132.38 1007.95 1133.9 1007.9 1135.37 1007.9C1135.46 1008.08 1135.51 1008.45 1135.51 1009C1135.51 1009.83 1135.32 1010.43 1134.96 1010.8C1132.84 1011.26 1131.14 1011.67 1129.85 1012.04C1128.66 1012.31 1127.74 1012.59 1127.1 1012.87C1126.45 1013.14 1126.04 1013.46 1125.85 1013.83C1125.76 1014.11 1125.72 1014.52 1125.72 1015.07C1125.72 1015.81 1125.72 1016.54 1125.72 1017.28C1125.81 1018.01 1125.85 1018.93 1125.85 1020.04C1125.85 1027.76 1123.74 1033.96 1119.51 1038.65C1115.37 1043.34 1109.58 1046.05 1102.14 1046.79C1100.85 1046.69 1099.52 1046.33 1098.14 1045.68C1096.76 1045.04 1095.43 1044.21 1094.14 1043.2C1092.94 1042.19 1091.89 1041.04 1090.97 1039.75C1090.05 1038.56 1089.4 1037.32 1089.04 1036.03C1089.04 1032.54 1089.77 1029.23 1091.24 1026.1C1092.71 1022.89 1094.69 1020.08 1097.17 1017.69C1099.75 1015.21 1102.73 1013.23 1106.14 1011.76C1109.63 1010.2 1113.4 1009.28 1117.44 1009C1117.44 1006.71 1117.21 1004.45 1116.75 1002.25C1116.29 1000.04 1115.79 997.927 1115.24 995.905C1114.78 993.79 1114.32 991.768 1113.86 989.837C1113.4 987.815 1113.17 985.838 1113.17 983.908C1113.17 981.426 1113.67 978.99 1114.68 976.6C1115.7 974.118 1117.03 971.865 1118.68 969.843C1120.34 967.729 1122.27 965.936 1124.48 964.465C1126.68 962.994 1128.98 961.983 1131.37 961.432C1132.38 961.707 1133.71 962.535 1135.37 963.914C1137.12 965.201 1138.82 966.671 1140.47 968.326C1142.13 969.981 1143.6 971.681 1144.88 973.428C1146.17 975.083 1146.95 976.462 1147.23 977.565ZM1101.72 1040.44C1103.93 1039.52 1106 1038.19 1107.93 1036.44C1109.95 1034.7 1111.7 1032.72 1113.17 1030.52C1114.64 1028.31 1115.79 1025.96 1116.62 1023.48C1117.53 1021 1117.99 1018.56 1117.99 1016.17C1116.16 1016.45 1114.13 1017.32 1111.93 1018.79C1109.72 1020.17 1107.65 1021.87 1105.72 1023.9C1103.79 1025.83 1102.18 1027.85 1100.9 1029.96C1099.61 1032.08 1098.97 1033.92 1098.97 1035.48C1098.97 1037.5 1099.88 1039.16 1101.72 1040.44ZM1238.51 974.945C1241.45 974.945 1243.75 975.772 1245.4 977.427C1247.15 979.082 1248.02 981.38 1248.02 984.322C1248.02 985.057 1247.98 985.838 1247.89 986.666C1247.79 987.401 1247.61 988.045 1247.33 988.596C1246.14 988.412 1244.81 988.275 1243.34 988.183C1241.87 987.999 1240.12 987.907 1238.1 987.907C1233.96 987.907 1229.82 988.275 1225.69 989.01C1221.55 989.745 1217.6 990.343 1213.83 990.803C1209.69 1000.55 1206.29 1009.69 1203.62 1018.24C1200.96 1026.79 1198.89 1035.25 1197.42 1043.62C1194.29 1042.88 1191.53 1041.55 1189.14 1039.62C1186.75 1037.69 1184.5 1034.97 1182.39 1031.48C1183.03 1030.01 1183.81 1028.26 1184.73 1026.24C1185.65 1024.13 1186.75 1021.51 1188.04 1018.38C1189.33 1015.16 1190.85 1011.3 1192.59 1006.8C1194.43 1002.2 1196.59 996.732 1199.07 990.389C1195.21 989.102 1192.68 986.85 1191.49 983.632C1191.95 983.173 1193.24 982.667 1195.35 982.115C1197.46 981.472 1200.04 980.782 1203.07 980.047C1204.45 976.462 1205.65 973.29 1206.66 970.532C1207.67 967.683 1208.59 965.017 1209.41 962.535C1210.24 959.961 1210.98 957.479 1211.62 955.088C1212.36 952.606 1213 949.986 1213.55 947.229H1212.86C1209.37 947.229 1206.52 946.401 1204.31 944.747C1202.2 943.092 1201.14 940.932 1201.14 938.266C1201.14 937.53 1201.23 936.657 1201.42 935.646C1201.69 934.635 1202.01 933.761 1202.38 933.026C1204.13 933.302 1205.83 933.485 1207.48 933.577C1209.23 933.669 1211.48 933.715 1214.24 933.715C1220.03 933.715 1225.46 933.577 1230.51 933.302C1235.57 932.934 1240.12 932.566 1244.16 932.198C1248.3 931.831 1251.84 931.509 1254.78 931.233C1257.72 930.865 1259.98 930.682 1261.54 930.682C1263.65 930.682 1265.54 931.785 1267.19 933.991C1268.85 936.197 1270.13 939.323 1271.05 943.368C1268.11 943.092 1265.72 942.908 1263.88 942.816C1262.14 942.724 1260.57 942.678 1259.19 942.678C1254.51 942.678 1250.18 942.908 1246.23 943.368C1242.37 943.735 1238.69 944.195 1235.2 944.747C1234.65 945.574 1234.01 946.631 1233.27 947.918C1232.63 949.205 1231.75 951.044 1230.65 953.434C1229.55 955.732 1228.12 958.766 1226.38 962.535C1224.72 966.304 1222.61 971.084 1220.03 976.875C1223.62 976.324 1227.02 975.864 1230.24 975.497C1233.55 975.129 1236.3 974.945 1238.51 974.945ZM1291.21 1029.41C1289.47 1027.94 1288.27 1026.1 1287.63 1023.9C1287.08 1021.69 1286.8 1019.81 1286.8 1018.24C1286.8 1016.31 1287.03 1014.66 1287.49 1013.28C1287.12 1013.28 1286.29 1014.01 1285.01 1015.49C1283.72 1016.96 1282.3 1018.7 1280.73 1020.73C1279.26 1022.75 1277.79 1024.72 1276.32 1026.65C1274.85 1028.58 1273.75 1030.01 1273.01 1030.93C1271.82 1032.22 1270.67 1033.23 1269.56 1033.96C1268.55 1034.7 1267.72 1035.11 1267.08 1035.2C1265.61 1035.11 1264.05 1034.79 1262.39 1034.24C1260.83 1033.78 1259.31 1033.09 1257.84 1032.17C1256.46 1031.25 1255.22 1030.15 1254.12 1028.86C1253.11 1027.57 1252.42 1026.1 1252.05 1024.45C1252.05 1021.87 1252.1 1019.76 1252.19 1018.11C1252.37 1016.45 1252.69 1014.66 1253.15 1012.73C1253.98 1009.23 1255.18 1005.28 1256.74 1000.87C1258.39 996.456 1260.28 992.135 1262.39 987.907C1264.51 983.586 1266.85 979.587 1269.43 975.91C1272.09 972.141 1274.9 969.199 1277.84 967.085C1278.66 967.085 1279.63 967.177 1280.73 967.361C1281.84 967.453 1282.94 967.683 1284.04 968.05C1285.24 968.418 1286.34 968.878 1287.35 969.429C1288.45 969.889 1289.37 970.532 1290.11 971.36C1289.28 972.279 1287.17 975.359 1283.77 980.599C1280.46 985.838 1276.73 993.377 1272.6 1003.21C1272.14 1004.22 1271.59 1005.69 1270.94 1007.63C1270.3 1009.56 1269.66 1011.58 1269.01 1013.69C1268.37 1015.81 1267.82 1017.88 1267.36 1019.9C1266.99 1021.92 1266.81 1023.53 1266.81 1024.72C1266.81 1025.46 1266.9 1026.01 1267.08 1026.38C1267.36 1026.75 1267.59 1027.02 1267.77 1027.21C1269.15 1026.65 1270.9 1025.14 1273.01 1022.66C1275.13 1020.17 1278.07 1016.36 1281.84 1011.21C1282.76 1009.92 1283.81 1008.45 1285.01 1006.8C1286.29 1005.14 1287.58 1003.4 1288.87 1001.56C1290.16 999.628 1291.35 997.651 1292.45 995.629C1293.65 993.606 1294.61 991.584 1295.35 989.561C1295.72 988.458 1296.18 987.171 1296.73 985.701C1297.37 984.138 1298.11 982.529 1298.93 980.874C1299.85 979.22 1300.87 977.565 1301.97 975.91C1303.16 974.164 1304.54 972.555 1306.1 971.084C1307.3 971.084 1308.59 971.222 1309.97 971.498C1311.34 971.773 1312.63 972.141 1313.83 972.601C1315.11 972.968 1316.22 973.428 1317.14 973.98C1318.06 974.439 1318.75 974.945 1319.2 975.497C1317.55 979.541 1315.71 983.54 1313.69 987.493C1311.67 991.446 1309.78 995.353 1308.04 999.214C1306.29 1002.98 1304.82 1006.75 1303.62 1010.52C1302.43 1014.29 1301.83 1017.97 1301.83 1021.55C1301.83 1023.48 1301.97 1025.18 1302.24 1026.65C1302.61 1028.03 1302.98 1029.23 1303.35 1030.24C1303.71 1031.16 1304.04 1031.94 1304.31 1032.58C1304.68 1033.23 1304.86 1033.78 1304.86 1034.24C1304.86 1034.33 1304.77 1034.47 1304.59 1034.65C1304.5 1034.74 1304.4 1034.79 1304.31 1034.79C1303.67 1034.79 1302.84 1034.65 1301.83 1034.38C1300.82 1034.1 1299.67 1033.69 1298.38 1033.14C1297.19 1032.68 1295.95 1032.12 1294.66 1031.48C1293.46 1030.84 1292.32 1030.15 1291.21 1029.41ZM1321.71 1023.62C1321.71 1019.58 1322.67 1013.92 1324.6 1006.66C1326.53 999.306 1329.24 990.757 1332.74 981.012C1338.44 965.476 1343.77 952.56 1348.73 942.265C1353.79 931.877 1358.71 923.787 1363.49 917.996C1364.59 918.179 1365.92 918.639 1367.49 919.374C1369.14 920.11 1370.75 920.937 1372.31 921.857C1373.88 922.684 1375.25 923.557 1376.45 924.476C1377.74 925.396 1378.56 926.131 1378.93 926.683C1371.76 935.14 1365.46 944.241 1360.04 953.985C1354.62 963.73 1349.65 974.899 1345.15 987.493C1341.29 998.341 1338.35 1008.13 1336.32 1016.86C1334.3 1025.51 1333.29 1032.72 1333.29 1038.51C1333.29 1040.08 1333.29 1041.04 1333.29 1041.41C1333.29 1041.78 1333.34 1042.14 1333.43 1042.51C1332.14 1042.33 1331.04 1042.01 1330.12 1041.55C1329.2 1041.09 1328.6 1040.54 1328.32 1039.89C1328.14 1039.43 1327.64 1038.74 1326.81 1037.82C1325.98 1037 1325.25 1036.35 1324.6 1035.89C1323.77 1035.34 1323.09 1033.92 1322.53 1031.62C1321.98 1029.23 1321.71 1026.56 1321.71 1023.62ZM1354.29 1023.62C1354.29 1019.58 1355.26 1013.92 1357.19 1006.66C1359.12 999.306 1361.83 990.757 1365.33 981.012C1371.02 965.476 1376.36 952.56 1381.32 942.265C1386.38 931.877 1391.29 923.787 1396.08 917.996C1397.18 918.179 1398.51 918.639 1400.07 919.374C1401.73 920.11 1403.34 920.937 1404.9 921.857C1406.46 922.684 1407.84 923.557 1409.04 924.476C1410.32 925.396 1411.15 926.131 1411.52 926.683C1404.35 935.14 1398.05 944.241 1392.63 953.985C1387.2 963.73 1382.24 974.899 1377.74 987.493C1373.87 998.341 1370.93 1008.13 1368.91 1016.86C1366.89 1025.51 1365.88 1032.72 1365.88 1038.51C1365.88 1040.08 1365.88 1041.04 1365.88 1041.41C1365.88 1041.78 1365.92 1042.14 1366.01 1042.51C1364.73 1042.33 1363.62 1042.01 1362.71 1041.55C1361.79 1041.09 1361.19 1040.54 1360.91 1039.89C1360.73 1039.43 1360.22 1038.74 1359.4 1037.82C1358.57 1037 1357.83 1036.35 1357.19 1035.89C1356.36 1035.34 1355.67 1033.92 1355.12 1031.62C1354.57 1029.23 1354.29 1026.56 1354.29 1023.62ZM1401.77 1006.8C1398.92 1006.8 1396.63 1006.02 1394.88 1004.45C1393.22 1002.8 1392.4 1000.55 1392.4 997.697C1392.4 997.237 1392.49 996.548 1392.67 995.629C1392.86 994.709 1393.04 994.02 1393.22 993.56C1394.79 993.836 1396.26 994.02 1397.64 994.112C1399.02 994.112 1400.81 994.112 1403.02 994.112C1407.7 994.112 1412.07 993.974 1416.11 993.698C1420.25 993.422 1423.97 993.101 1427.28 992.733C1430.59 992.365 1433.44 992.044 1435.83 991.768C1438.22 991.492 1440.06 991.354 1441.35 991.354C1443.1 991.354 1444.61 992.411 1445.9 994.526C1447.28 996.64 1448.29 999.674 1448.93 1003.63C1446.63 1003.35 1444.75 1003.17 1443.28 1003.07C1441.81 1002.98 1440.52 1002.94 1439.42 1002.94C1435.47 1002.94 1431.79 1003.17 1428.39 1003.63C1424.99 1003.99 1421.77 1004.41 1418.73 1004.87C1415.7 1005.33 1412.81 1005.79 1410.05 1006.25C1407.29 1006.61 1404.53 1006.8 1401.77 1006.8ZM1550.06 939.507C1550.33 941.069 1550.52 942.173 1550.61 942.816C1550.79 943.368 1550.89 944.149 1550.89 945.16C1550.89 948.194 1550.2 951.044 1548.82 953.71C1547.53 956.284 1545.74 958.122 1543.44 959.225C1541.6 956.743 1539.35 954.629 1536.68 952.882C1534.02 951.044 1531.08 949.573 1527.86 948.47C1524.73 947.275 1521.47 946.401 1518.07 945.85C1514.67 945.298 1511.36 945.022 1508.14 945.022C1504.92 945.022 1501.89 945.298 1499.04 945.85C1496.28 946.309 1493.8 946.999 1491.59 947.918C1489.48 948.745 1487.78 949.803 1486.49 951.09C1485.3 952.377 1484.7 953.847 1484.7 955.502C1484.97 957.525 1486.21 959.593 1488.42 961.707C1490.63 963.73 1493.34 965.752 1496.56 967.775C1499.77 969.705 1503.31 971.636 1507.17 973.566C1511.13 975.497 1514.99 977.335 1518.76 979.082C1523.45 981.288 1527.49 983.356 1530.89 985.287C1534.29 987.125 1537.1 989.194 1539.3 991.492C1541.51 993.698 1543.16 996.226 1544.27 999.076C1545.37 1001.93 1545.92 1005.37 1545.92 1009.42C1545.92 1014.11 1545.14 1018.52 1543.58 1022.66C1542.01 1026.7 1539.72 1030.24 1536.68 1033.27C1533.74 1036.31 1530.16 1038.65 1525.93 1040.31C1521.7 1042.05 1516.96 1042.93 1511.72 1042.93C1506.58 1042.93 1501.01 1042.14 1495.04 1040.58C1489.06 1039.02 1483.46 1036.86 1478.22 1034.1C1473.07 1031.43 1468.75 1028.36 1465.25 1024.86C1461.85 1021.28 1460.15 1017.51 1460.15 1013.55C1460.15 1011.72 1460.66 1009.37 1461.67 1006.52C1462.77 1003.67 1464.7 1000.68 1467.46 997.559C1467.74 1000.32 1469.21 1003.58 1471.87 1007.35C1474.63 1011.12 1478.72 1014.61 1484.15 1017.83C1489.2 1020.77 1494.4 1022.93 1499.73 1024.31C1505.15 1025.6 1510.21 1026.24 1514.9 1026.24C1520.04 1026.24 1524.23 1025.6 1527.44 1024.31C1530.66 1023.02 1533.19 1021.51 1535.03 1019.76C1536.87 1017.92 1538.15 1016.08 1538.89 1014.24C1539.62 1012.41 1540.04 1010.93 1540.13 1009.83C1540.04 1007.99 1539.17 1006.25 1537.51 1004.59C1535.95 1002.85 1533.79 1001.19 1531.03 999.628C1528.36 997.973 1525.24 996.318 1521.65 994.664C1518.07 993.009 1514.34 991.354 1510.48 989.699C1504.69 987.125 1499.68 984.735 1495.45 982.529C1491.32 980.231 1487.87 977.933 1485.11 975.634C1482.45 973.244 1480.47 970.762 1479.18 968.188C1477.99 965.614 1477.39 962.673 1477.39 959.363C1477.39 954.215 1478.95 949.343 1482.08 944.747C1485.2 940.15 1489.71 936.657 1495.59 934.267C1498.53 932.98 1501.66 932.061 1504.97 931.509C1508.37 930.957 1511.68 930.682 1514.9 930.682C1520.96 930.682 1526.89 931.509 1532.68 933.164C1538.48 934.818 1544.27 936.933 1550.06 939.507ZM1561.06 979.633C1560.6 979.082 1560.18 977.933 1559.82 976.186C1559.45 974.347 1559.26 972.785 1559.26 971.498C1561.65 971.681 1563.95 971.865 1566.16 972.049C1568.36 972.141 1570.39 972.233 1572.23 972.325C1573.6 969.567 1575.08 966.855 1576.64 964.189C1578.29 961.432 1579.86 958.949 1581.33 956.743C1582.89 954.445 1584.31 952.515 1585.6 950.952C1586.98 949.389 1588.04 948.378 1588.77 947.918C1589.69 947.918 1590.84 948.102 1592.22 948.47C1593.69 948.745 1595.16 949.159 1596.63 949.711C1598.1 950.17 1599.44 950.676 1600.63 951.228C1601.83 951.779 1602.65 952.331 1603.11 952.882C1600.36 956.375 1597.97 959.639 1595.94 962.673C1594.01 965.614 1591.9 969.016 1589.6 972.877C1591.44 972.877 1593.28 972.831 1595.12 972.739C1597.05 972.647 1598.98 972.509 1600.91 972.325C1601.37 972.785 1601.73 973.382 1602.01 974.118C1602.29 974.761 1602.42 975.451 1602.42 976.186C1597.92 977.841 1592.45 978.76 1586.02 978.944C1583.72 983.356 1581.65 987.769 1579.81 992.181C1578.06 996.502 1576.55 1000.68 1575.26 1004.73C1574.06 1008.77 1573.1 1012.59 1572.36 1016.17C1571.72 1019.76 1571.4 1022.98 1571.4 1025.83C1571.4 1029.87 1572.92 1032.12 1575.95 1032.58C1578.71 1032.22 1581.33 1031.53 1583.81 1030.52C1586.29 1029.5 1588.5 1028.22 1590.43 1026.65C1590.98 1027.48 1591.3 1028.17 1591.39 1028.72C1590.84 1029.55 1589.88 1030.52 1588.5 1031.62C1587.21 1032.72 1585.79 1033.78 1584.22 1034.79C1582.66 1035.89 1581.14 1036.81 1579.67 1037.55C1578.2 1038.28 1577.1 1038.7 1576.36 1038.79C1574.06 1038.7 1571.77 1038.19 1569.47 1037.27C1567.17 1036.35 1565.06 1035.2 1563.12 1033.82C1561.29 1032.45 1559.77 1030.93 1558.57 1029.27C1557.38 1027.53 1556.78 1025.83 1556.78 1024.17C1556.78 1021.97 1557.06 1019.21 1557.61 1015.9C1558.25 1012.5 1559.13 1008.82 1560.23 1004.87C1561.33 1000.91 1562.62 996.778 1564.09 992.457C1565.56 988.137 1567.17 983.862 1568.92 979.633H1561.06ZM1648.97 976.738C1649.89 976.738 1650.95 976.921 1652.14 977.289C1653.43 977.565 1654.58 977.979 1655.59 978.53C1656.6 978.99 1657.43 979.495 1658.07 980.047C1658.81 980.599 1659.18 981.104 1659.18 981.564C1657.34 985.425 1655.64 989.332 1654.07 993.285C1652.51 997.146 1651.18 1000.87 1650.07 1004.45C1648.97 1008.04 1648.1 1011.39 1647.45 1014.52C1646.9 1017.65 1646.63 1020.36 1646.63 1022.66C1646.63 1025.23 1646.9 1027.39 1647.45 1029.14C1648.01 1030.79 1648.93 1031.99 1650.21 1032.72C1649.11 1033.46 1647.68 1034.05 1645.94 1034.51C1644.19 1034.97 1642.63 1035.2 1641.25 1035.2C1636.29 1035.2 1633.8 1031.8 1633.8 1025C1633.8 1019.76 1635.55 1012.59 1639.04 1003.49C1637.2 1007.72 1635.09 1011.72 1632.7 1015.49C1630.31 1019.16 1627.87 1022.43 1625.39 1025.28C1622.91 1028.13 1620.38 1030.47 1617.81 1032.31C1615.33 1034.05 1613.03 1035.11 1610.91 1035.48C1607.51 1035.3 1604.75 1033.69 1602.64 1030.65C1600.53 1027.53 1599.47 1023.57 1599.47 1018.79C1599.47 1013.65 1600.57 1008.22 1602.78 1002.52C1604.98 996.824 1607.79 991.538 1611.19 986.666C1614.68 981.794 1618.45 977.749 1622.5 974.531C1626.54 971.222 1630.45 969.475 1634.22 969.291C1635.14 969.567 1636.15 970.119 1637.25 970.946C1638.45 971.773 1639.55 972.739 1640.56 973.842C1641.66 974.945 1642.58 976.094 1643.32 977.289C1644.05 978.392 1644.47 979.357 1644.56 980.185C1640.88 980.736 1637.07 982.529 1633.11 985.563C1629.25 988.596 1625.71 992.273 1622.5 996.594C1619.37 1000.82 1616.8 1005.37 1614.77 1010.25C1612.75 1015.12 1611.74 1019.67 1611.74 1023.9C1611.74 1025.64 1612.38 1026.75 1613.67 1027.21C1616.34 1026.65 1619.42 1024.4 1622.91 1020.45C1626.4 1016.4 1630.63 1010.2 1635.6 1001.83C1636.52 1000.18 1637.53 998.341 1638.63 996.318C1639.82 994.296 1641.02 992.181 1642.21 989.975C1643.41 987.769 1644.56 985.563 1645.66 983.356C1646.86 981.058 1647.96 978.852 1648.97 976.738ZM1665.92 1008.18C1665.92 1002.94 1666.98 997.881 1669.09 993.009C1671.3 988.045 1674.15 983.678 1677.64 979.909C1681.23 976.048 1685.27 972.968 1689.78 970.67C1694.37 968.28 1699.11 967.085 1703.98 967.085C1708.76 967.085 1712.44 968.28 1715.01 970.67C1717.58 973.06 1718.87 976.462 1718.87 980.874C1718.87 982.989 1718.55 985.057 1717.91 987.079C1717.35 989.01 1716.57 990.757 1715.56 992.319C1714.64 993.882 1713.54 995.169 1712.25 996.18C1710.96 997.1 1709.68 997.559 1708.39 997.559C1707.29 997.559 1706.14 997.237 1704.94 996.594C1703.84 995.859 1702.92 994.939 1702.19 993.836C1708.34 988.229 1711.42 983.127 1711.42 978.53C1711.42 975.864 1710.37 974.531 1708.25 974.531C1706.41 974.531 1704.12 975.405 1701.36 977.151C1698.6 978.898 1695.93 981.196 1693.36 984.046C1689.41 988.458 1686.37 993.377 1684.26 998.8C1682.24 1004.13 1681.23 1009.74 1681.23 1015.62C1681.23 1023.07 1682.88 1027.53 1686.19 1029C1687.57 1028.81 1689.18 1028.4 1691.02 1027.76C1692.86 1027.11 1694.83 1026.29 1696.95 1025.28C1699.06 1024.17 1701.22 1022.93 1703.43 1021.55C1705.72 1020.17 1707.93 1018.7 1710.05 1017.14C1710.41 1017.42 1710.74 1017.83 1711.01 1018.38C1711.29 1018.93 1711.42 1019.44 1711.42 1019.9C1709.86 1021.83 1708.07 1023.71 1706.05 1025.55C1704.02 1027.39 1701.91 1029.09 1699.7 1030.65C1697.5 1032.12 1695.34 1033.37 1693.22 1034.38C1691.2 1035.48 1689.41 1036.17 1687.85 1036.44C1684.81 1036.17 1681.96 1035.2 1679.3 1033.55C1676.63 1031.99 1674.29 1029.92 1672.26 1027.34C1670.33 1024.77 1668.77 1021.83 1667.57 1018.52C1666.47 1015.21 1665.92 1011.76 1665.92 1008.18ZM1723.27 1019.48C1723.27 1016.17 1724.1 1011.58 1725.75 1005.69C1727.5 999.811 1729.75 993.377 1732.51 986.39C1735.27 979.403 1738.39 972.187 1741.89 964.741C1745.38 957.295 1748.87 950.354 1752.37 943.919C1755.95 937.484 1759.35 931.923 1762.57 927.234C1765.88 922.546 1768.68 919.374 1770.98 917.72C1772.27 917.812 1773.65 918.363 1775.12 919.374C1776.68 920.386 1778.11 921.627 1779.39 923.098C1780.68 924.476 1781.74 925.947 1782.57 927.51C1783.49 929.073 1783.95 930.498 1783.95 931.785C1779.81 935.094 1775.58 939.369 1771.26 944.609C1767.03 949.757 1762.99 955.456 1759.12 961.707C1755.26 967.866 1751.68 974.439 1748.37 981.426C1745.15 988.32 1742.44 995.123 1740.23 1001.83C1743.17 996.778 1746.25 992.181 1749.47 988.045C1752.69 983.908 1755.91 980.369 1759.12 977.427C1762.34 974.485 1765.47 972.233 1768.5 970.67C1771.63 969.016 1774.57 968.142 1777.33 968.05C1781.37 970.992 1783.39 974.899 1783.39 979.771C1783.39 982.713 1782.8 985.701 1781.6 988.734C1780.41 991.676 1778.8 994.434 1776.77 997.008C1774.84 999.49 1772.59 1001.65 1770.02 1003.49C1767.54 1005.24 1764.92 1006.38 1762.16 1006.94C1763.08 1010.15 1764.23 1013.42 1765.61 1016.73C1767.08 1020.04 1768.78 1023.25 1770.71 1026.38C1772.73 1029.5 1774.98 1032.4 1777.46 1035.07C1780.04 1037.73 1782.93 1039.98 1786.15 1041.82C1785.69 1042.74 1785 1043.66 1784.08 1044.58C1783.16 1045.5 1782.06 1046.28 1780.77 1046.92C1779.49 1047.66 1778.06 1048.21 1776.5 1048.58C1775.03 1049.04 1773.56 1049.27 1772.09 1049.27C1769.6 1049.27 1767.26 1048.03 1765.05 1045.55C1762.94 1043.06 1761.01 1039.48 1759.26 1034.79C1757.88 1031.02 1756.55 1026.52 1755.26 1021.28C1753.98 1016.04 1752.83 1010.57 1751.82 1004.87C1753.1 1004.04 1754.71 1002.85 1756.64 1001.28C1758.57 999.628 1760.6 997.743 1762.71 995.629C1770.8 987.815 1774.84 981.058 1774.84 975.359C1774.84 974.623 1774.34 974.255 1773.33 974.255C1771.49 974.347 1769.33 975.221 1766.85 976.875C1764.36 978.53 1761.7 980.828 1758.85 983.77C1756.09 986.712 1753.24 990.159 1750.3 994.112C1747.45 998.065 1744.69 1002.34 1742.03 1006.94C1740.92 1008.77 1739.91 1010.89 1738.99 1013.28C1738.07 1015.67 1737.25 1018.15 1736.51 1020.73C1735.87 1023.21 1735.36 1025.69 1734.99 1028.17C1734.63 1030.65 1734.44 1032.95 1734.44 1035.07C1734.44 1036.35 1734.58 1037.41 1734.86 1038.24C1732.01 1037.96 1730.26 1037.23 1729.62 1036.03C1728.88 1034.93 1728.24 1034.01 1727.69 1033.27C1727.23 1032.63 1726.72 1032.08 1726.17 1031.62C1725.34 1030.98 1724.65 1029.6 1724.1 1027.48C1723.55 1025.37 1723.27 1022.7 1723.27 1019.48ZM1836.74 1025.28C1838.12 1022.24 1839.78 1018.33 1841.71 1013.55C1843.64 1008.77 1845.66 1003.63 1847.78 998.111C1849.89 992.503 1852.05 986.804 1854.26 981.012C1856.46 975.129 1858.53 969.567 1860.46 964.327C1862.39 959.087 1864.05 954.399 1865.43 950.262C1866.9 946.126 1867.95 942.954 1868.6 940.748C1862.81 943.138 1857.84 946.769 1853.71 951.641C1849.57 956.513 1846.44 962.627 1844.33 969.981C1842.21 969.245 1840.28 967.958 1838.54 966.12C1836.79 964.189 1835.64 961.799 1835.09 958.949C1836.01 954.721 1837.71 950.86 1840.19 947.367C1842.77 943.873 1845.98 940.886 1849.84 938.404C1853.71 935.921 1858.16 934.037 1863.22 932.75C1868.28 931.371 1873.7 930.682 1879.49 930.682C1886.85 930.682 1893.6 931.785 1899.76 933.991C1905.92 936.105 1911.21 939.093 1915.62 942.954C1920.03 946.815 1923.48 951.457 1925.96 956.881C1928.44 962.305 1929.68 968.326 1929.68 974.945C1929.68 983.954 1928.03 992.549 1924.72 1000.73C1921.41 1008.91 1916.91 1016.13 1911.21 1022.38C1905.6 1028.63 1899.07 1033.6 1891.63 1037.27C1884.18 1041.04 1876.37 1042.93 1868.18 1042.93C1860.65 1042.93 1854.17 1041.41 1848.74 1038.38C1843.41 1035.43 1839.41 1031.07 1836.74 1025.28ZM1885.42 937.576C1880.82 937.576 1876.46 938.22 1872.32 939.507C1876.37 940.978 1879.72 942.54 1882.39 944.195C1885.05 945.758 1886.89 946.999 1887.9 947.918C1887.17 948.929 1886.06 950.722 1884.59 953.296C1883.21 955.87 1881.56 958.995 1879.63 962.673C1877.79 966.35 1875.81 970.395 1873.7 974.807C1871.59 979.128 1869.52 983.586 1867.49 988.183C1862.25 999.857 1858.44 1009.05 1856.05 1015.76C1853.75 1022.47 1852.6 1027.11 1852.6 1029.69C1853.89 1030.15 1855.45 1030.47 1857.29 1030.65C1859.13 1030.84 1861.11 1030.93 1863.22 1030.93C1870.67 1030.93 1877.7 1029.23 1884.32 1025.83C1891.03 1022.33 1896.87 1017.69 1901.83 1011.9C1906.89 1006.11 1910.84 999.398 1913.69 991.768C1916.63 984.046 1918.1 975.956 1918.1 967.499C1918.1 958.03 1915.16 950.676 1909.28 945.436C1903.39 940.196 1895.44 937.576 1885.42 937.576ZM1983.64 975.359C1983.28 981.058 1982.27 985.976 1980.61 990.113C1978.96 994.158 1976.57 997.743 1973.44 1000.87C1970.41 1003.9 1966.68 1006.66 1962.27 1009.14C1957.86 1011.62 1952.71 1014.01 1946.83 1016.31C1946.83 1016.86 1946.78 1017.46 1946.69 1018.11C1946.69 1018.66 1946.69 1019.25 1946.69 1019.9C1946.69 1021.09 1946.78 1022.33 1946.96 1023.62C1947.15 1024.91 1947.47 1026.1 1947.93 1027.21C1948.39 1028.31 1949.03 1029.23 1949.86 1029.96C1950.69 1030.61 1951.74 1030.93 1953.03 1030.93C1955.51 1030.93 1957.95 1030.38 1960.34 1029.27C1962.73 1028.17 1964.98 1026.84 1967.1 1025.28C1969.3 1023.62 1971.33 1021.87 1973.16 1020.04C1975.09 1018.11 1976.8 1016.36 1978.27 1014.8C1979.19 1015.62 1979.97 1016.4 1980.61 1017.14C1976.47 1022.66 1971.92 1027.25 1966.96 1030.93C1962.09 1034.51 1957.44 1036.81 1953.03 1037.82C1946.69 1037.09 1941.72 1034.79 1938.14 1030.93C1934.65 1026.98 1932.9 1022.24 1932.9 1016.73C1932.9 1012.96 1933.41 1009.14 1934.42 1005.28C1935.52 1001.33 1936.99 997.559 1938.83 993.974C1940.76 990.297 1942.97 986.85 1945.45 983.632C1948.02 980.415 1950.73 977.611 1953.58 975.221C1956.53 972.831 1959.51 970.946 1962.55 969.567C1965.67 968.188 1968.75 967.499 1971.79 967.499C1976.01 968.05 1979.97 970.67 1983.64 975.359ZM1974.13 979.909C1971.65 980.277 1969.07 981.288 1966.41 982.943C1963.74 984.597 1961.21 986.804 1958.82 989.561C1956.53 992.319 1954.41 995.537 1952.48 999.214C1950.55 1002.89 1949.03 1006.84 1947.93 1011.07C1955.28 1007.4 1961.4 1002.89 1966.27 997.559C1971.14 992.135 1973.76 986.252 1974.13 979.909ZM1996.67 983.632C1996.67 981.977 1996.76 980.415 1996.95 978.944C1997.22 977.473 1997.73 976.232 1998.46 975.221C1999.2 974.118 2000.21 973.29 2001.5 972.739C2002.78 972.095 2004.48 971.773 2006.6 971.773C2007.88 971.773 2009.31 971.911 2010.87 972.187C2012.53 972.463 2013.72 972.968 2014.46 973.704C2014.09 975.267 2013.77 976.646 2013.49 977.841C2013.31 979.036 2013.12 980.369 2012.94 981.84C2012.85 983.218 2012.76 984.919 2012.66 986.942C2012.57 988.872 2012.48 991.4 2012.39 994.526C2012.21 1000.78 2011.88 1006.38 2011.42 1011.35C2011.06 1016.22 2010.14 1021.09 2008.67 1025.96C2008.67 1026.33 2008.8 1026.52 2009.08 1026.52C2010.46 1025.51 2012.02 1024.03 2013.77 1022.1C2015.51 1020.17 2017.35 1018.01 2019.28 1015.62C2021.21 1013.14 2023.14 1010.52 2025.08 1007.76C2027.01 1005.01 2028.8 1002.29 2030.45 999.628C2032.66 995.767 2035.1 990.94 2037.76 985.149C2040.43 979.357 2042.63 973.152 2044.38 966.534C2044.93 966.534 2045.62 966.671 2046.45 966.947C2047.37 967.131 2048.24 967.407 2049.07 967.775C2049.99 968.05 2050.77 968.372 2051.41 968.74C2052.15 969.108 2052.65 969.429 2052.93 969.705C2052.75 973.658 2051.78 977.703 2050.03 981.84C2048.38 985.976 2046.36 989.975 2043.97 993.836C2041.58 997.697 2039.05 1001.33 2036.38 1004.73C2033.72 1008.13 2031.28 1011.07 2029.07 1013.55C2024.66 1018.7 2020.2 1023.3 2015.7 1027.34C2011.29 1031.39 2006 1035.3 1999.84 1039.06C1997.45 1038.15 1995.57 1036.9 1994.19 1035.34C1992.81 1033.87 1992.12 1032.31 1992.12 1030.65C1992.12 1029.55 1992.35 1028.31 1992.81 1026.93C1993.36 1025.46 1993.96 1023.62 1994.6 1021.41C1995.24 1019.12 1995.8 1016.27 1996.26 1012.87C1996.81 1009.46 1997.08 1005.14 1997.08 999.903C1997.08 996.87 1996.99 993.836 1996.81 990.803C1996.72 987.677 1996.67 985.287 1996.67 983.632ZM2100.26 975.359C2099.89 981.058 2098.88 985.976 2097.23 990.113C2095.57 994.158 2093.18 997.743 2090.06 1000.87C2087.02 1003.9 2083.3 1006.66 2078.89 1009.14C2074.47 1011.62 2069.33 1014.01 2063.44 1016.31C2063.44 1016.86 2063.4 1017.46 2063.3 1018.11C2063.3 1018.66 2063.3 1019.25 2063.3 1019.9C2063.3 1021.09 2063.4 1022.33 2063.58 1023.62C2063.76 1024.91 2064.09 1026.1 2064.55 1027.21C2065.01 1028.31 2065.65 1029.23 2066.48 1029.96C2067.3 1030.61 2068.36 1030.93 2069.65 1030.93C2072.13 1030.93 2074.57 1030.38 2076.96 1029.27C2079.35 1028.17 2081.6 1026.84 2083.71 1025.28C2085.92 1023.62 2087.94 1021.87 2089.78 1020.04C2091.71 1018.11 2093.41 1016.36 2094.88 1014.8C2095.8 1015.62 2096.58 1016.4 2097.23 1017.14C2093.09 1022.66 2088.54 1027.25 2083.57 1030.93C2078.7 1034.51 2074.06 1036.81 2069.65 1037.82C2063.3 1037.09 2058.34 1034.79 2054.76 1030.93C2051.26 1026.98 2049.52 1022.24 2049.52 1016.73C2049.52 1012.96 2050.02 1009.14 2051.03 1005.28C2052.14 1001.33 2053.61 997.559 2055.44 993.974C2057.38 990.297 2059.58 986.85 2062.06 983.632C2064.64 980.415 2067.35 977.611 2070.2 975.221C2073.14 972.831 2076.13 970.946 2079.16 969.567C2082.29 968.188 2085.37 967.499 2088.4 967.499C2092.63 968.05 2096.58 970.67 2100.26 975.359ZM2090.75 979.909C2088.26 980.277 2085.69 981.288 2083.02 982.943C2080.36 984.597 2077.83 986.804 2075.44 989.561C2073.14 992.319 2071.03 995.537 2069.1 999.214C2067.17 1002.89 2065.65 1006.84 2064.55 1011.07C2071.9 1007.4 2078.01 1002.89 2082.89 997.559C2087.76 992.135 2090.38 986.252 2090.75 979.909ZM2106.51 1023.62C2106.51 1019.58 2107.47 1013.92 2109.4 1006.66C2111.33 999.306 2114.04 990.757 2117.54 981.012C2123.24 965.476 2128.57 952.56 2133.53 942.265C2138.59 931.877 2143.51 923.787 2148.29 917.996C2149.39 918.179 2150.72 918.639 2152.29 919.374C2153.94 920.11 2155.55 920.937 2157.11 921.857C2158.67 922.684 2160.05 923.557 2161.25 924.476C2162.54 925.396 2163.36 926.131 2163.73 926.683C2156.56 935.14 2150.26 944.241 2144.84 953.985C2139.42 963.73 2134.45 974.899 2129.95 987.493C2126.09 998.341 2123.14 1008.13 2121.12 1016.86C2119.1 1025.51 2118.09 1032.72 2118.09 1038.51C2118.09 1040.08 2118.09 1041.04 2118.09 1041.41C2118.09 1041.78 2118.13 1042.14 2118.23 1042.51C2116.94 1042.33 2115.84 1042.01 2114.92 1041.55C2114 1041.09 2113.4 1040.54 2113.12 1039.89C2112.94 1039.43 2112.44 1038.74 2111.61 1037.82C2110.78 1037 2110.04 1036.35 2109.4 1035.89C2108.57 1035.34 2107.88 1033.92 2107.33 1031.62C2106.78 1029.23 2106.51 1026.56 2106.51 1023.62ZM2154.96 1037.27C2149.72 1036.72 2145.54 1034.42 2142.42 1030.38C2139.29 1026.33 2137.73 1021.18 2137.73 1014.93C2137.73 1011.26 2138.28 1007.44 2139.38 1003.49C2140.49 999.536 2142.05 995.721 2144.07 992.044C2146.09 988.275 2148.48 984.735 2151.24 981.426C2154 978.116 2156.99 975.267 2160.2 972.877C2165.26 969.108 2169.99 967.223 2174.41 967.223C2177.35 968.786 2180.24 972.049 2183.09 977.013C2183.55 977.013 2183.97 977.013 2184.33 977.013C2184.7 976.921 2185.12 976.875 2185.58 976.875C2190.45 976.875 2192.88 981.196 2192.88 989.837C2192.88 995.629 2191.92 1001.14 2189.99 1006.38C2188.15 1011.53 2185.53 1016.22 2182.13 1020.45C2178.82 1024.68 2174.82 1028.26 2170.13 1031.2C2165.54 1034.05 2160.48 1036.08 2154.96 1037.27ZM2162 993.836C2160.43 995.95 2158.96 998.249 2157.58 1000.73C2156.2 1003.21 2155.01 1005.74 2154 1008.31C2152.99 1010.8 2152.21 1013.23 2151.65 1015.62C2151.1 1017.92 2150.83 1019.99 2150.83 1021.83C2150.83 1024.03 2151.19 1026.15 2151.93 1028.17C2152.67 1030.19 2153.49 1031.34 2154.41 1031.62C2158.55 1030.7 2162.32 1029 2165.72 1026.52C2169.21 1023.94 2172.2 1020.77 2174.68 1017C2177.26 1013.23 2179.23 1008.96 2180.61 1004.18C2182.08 999.398 2182.82 994.296 2182.82 988.872C2182.82 986.482 2182.68 984.597 2182.4 983.218C2182.13 981.84 2181.67 980.644 2181.03 979.633C2176.98 980.828 2173.35 982.759 2170.13 985.425C2167.01 988.091 2164.29 990.894 2162 993.836ZM2189.49 1078.09C2188.21 1077.72 2187.47 1076.34 2187.29 1073.95C2186.92 1072.76 2186.64 1071.33 2186.46 1069.68C2186.37 1068.02 2186.32 1066.14 2186.32 1064.02C2186.32 1062.09 2186.64 1059.43 2187.29 1056.03C2187.93 1052.72 2188.8 1048.95 2189.91 1044.72C2191.1 1040.49 2192.53 1035.94 2194.18 1031.07C2195.84 1026.1 2197.67 1021.09 2199.7 1016.04C2202.18 1009.69 2204.34 1004.22 2206.18 999.628C2208.02 994.939 2209.53 990.894 2210.73 987.493C2212.02 984.092 2213.03 981.288 2213.76 979.082C2214.59 976.875 2215.23 974.991 2215.69 973.428C2216.06 972.325 2216.61 970.992 2217.35 969.429C2218.08 967.866 2218.91 966.304 2219.83 964.741C2220.84 963.086 2221.85 961.569 2222.86 960.19C2223.87 958.72 2224.79 957.617 2225.62 956.881C2228.84 957.341 2231.87 958.168 2234.72 959.363C2237.57 960.558 2239.32 961.707 2239.96 962.81C2238.67 964.006 2237.2 965.89 2235.55 968.464C2233.89 970.946 2232.29 973.704 2230.72 976.738C2229.16 979.679 2227.74 982.713 2226.45 985.838C2225.16 988.964 2224.2 991.722 2223.55 994.112C2224.47 992.549 2225.67 990.848 2227.14 989.01C2228.61 987.171 2230.86 984.643 2233.89 981.426C2237.3 977.933 2240.47 975.267 2243.41 973.428C2246.44 971.498 2249.06 970.532 2251.27 970.532C2254.76 970.532 2257.61 971.498 2259.82 973.428C2262.12 975.359 2263.27 977.841 2263.27 980.874C2263.27 987.493 2262.16 994.066 2259.96 1000.59C2257.75 1007.03 2254.58 1012.87 2250.44 1018.11C2248.88 1020.13 2247.04 1022.06 2244.93 1023.9C2242.81 1025.74 2240.6 1027.39 2238.31 1028.86C2236.01 1030.24 2233.76 1031.34 2231.55 1032.17C2229.34 1033 2227.37 1033.41 2225.62 1033.41C2223.97 1033.41 2222.5 1033.09 2221.21 1032.45C2220.01 1031.71 2219.19 1030.84 2218.73 1029.83C2222.31 1027.71 2225.8 1024.77 2229.21 1021C2232.61 1017.23 2235.73 1012.91 2238.58 1008.04C2241.52 1003.07 2244.05 997.743 2246.17 992.044C2248.37 986.344 2250.03 980.553 2251.13 974.669C2247.64 976.508 2244.47 978.53 2241.62 980.736C2238.86 982.851 2236.1 985.655 2233.34 989.148C2230.03 993.193 2227.41 996.456 2225.48 998.938C2223.55 1001.42 2221.94 1003.53 2220.66 1005.28C2219.46 1007.03 2218.45 1008.68 2217.62 1010.25C2216.89 1011.72 2216.06 1013.55 2215.14 1015.76C2213.85 1018.7 2212.34 1022.61 2210.59 1027.48C2208.94 1032.26 2207.19 1037.64 2205.35 1043.62C2203.6 1049.59 2201.81 1055.93 2199.97 1062.64C2198.23 1069.45 2196.53 1076.2 2194.87 1082.91C2193.86 1082.73 2192.99 1082 2192.25 1080.71C2191.52 1079.88 2190.96 1079.28 2190.6 1078.92C2190.32 1078.55 2189.95 1078.27 2189.49 1078.09ZM2317.6 975.359C2317.23 981.058 2316.22 985.976 2314.57 990.113C2312.91 994.158 2310.52 997.743 2307.4 1000.87C2304.36 1003.9 2300.64 1006.66 2296.23 1009.14C2291.82 1011.62 2286.67 1014.01 2280.78 1016.31C2280.78 1016.86 2280.74 1017.46 2280.65 1018.11C2280.65 1018.66 2280.65 1019.25 2280.65 1019.9C2280.65 1021.09 2280.74 1022.33 2280.92 1023.62C2281.11 1024.91 2281.43 1026.1 2281.89 1027.21C2282.35 1028.31 2282.99 1029.23 2283.82 1029.96C2284.65 1030.61 2285.7 1030.93 2286.99 1030.93C2289.47 1030.93 2291.91 1030.38 2294.3 1029.27C2296.69 1028.17 2298.94 1026.84 2301.05 1025.28C2303.26 1023.62 2305.28 1021.87 2307.12 1020.04C2309.05 1018.11 2310.75 1016.36 2312.22 1014.8C2313.14 1015.62 2313.92 1016.4 2314.57 1017.14C2310.43 1022.66 2305.88 1027.25 2300.92 1030.93C2296.04 1034.51 2291.4 1036.81 2286.99 1037.82C2280.65 1037.09 2275.68 1034.79 2272.1 1030.93C2268.6 1026.98 2266.86 1022.24 2266.86 1016.73C2266.86 1012.96 2267.36 1009.14 2268.37 1005.28C2269.48 1001.33 2270.95 997.559 2272.79 993.974C2274.72 990.297 2276.92 986.85 2279.41 983.632C2281.98 980.415 2284.69 977.611 2287.54 975.221C2290.48 972.831 2293.47 970.946 2296.5 969.567C2299.63 968.188 2302.71 967.499 2305.74 967.499C2309.97 968.05 2313.92 970.67 2317.6 975.359ZM2308.09 979.909C2305.6 980.277 2303.03 981.288 2300.36 982.943C2297.7 984.597 2295.17 986.804 2292.78 989.561C2290.48 992.319 2288.37 995.537 2286.44 999.214C2284.51 1002.89 2282.99 1006.84 2281.89 1011.07C2289.24 1007.4 2295.35 1002.89 2300.23 997.559C2305.1 992.135 2307.72 986.252 2308.09 979.909ZM2320.68 1029.69C2321.14 1027.02 2321.92 1023.53 2323.02 1019.21C2324.21 1014.8 2325.59 1010.15 2327.16 1005.28C2328.72 1000.32 2330.37 995.353 2332.12 990.389C2333.87 985.425 2335.57 980.966 2337.22 977.013C2338.42 974.164 2339.48 971.957 2340.39 970.395C2341.31 968.74 2342.32 967.361 2343.43 966.258C2344.71 966.442 2346.05 966.763 2347.43 967.223C2348.81 967.683 2350.14 968.234 2351.43 968.878C2352.71 969.521 2353.86 970.211 2354.87 970.946C2355.88 971.59 2356.67 972.233 2357.22 972.877C2354.74 975.818 2352.53 979.174 2350.6 982.943C2348.76 986.712 2346.88 991.538 2344.94 997.421C2349.91 993.009 2354.28 988.78 2358.04 984.735C2361.91 980.69 2365.49 976.186 2368.8 971.222C2369.35 970.762 2370.32 970.532 2371.7 970.532C2372.98 970.532 2374.22 970.762 2375.42 971.222C2376.61 971.59 2377.44 972.141 2377.9 972.877C2376.25 977.289 2375.42 981.656 2375.42 985.976C2375.42 990.021 2376.02 993.055 2377.21 995.077C2377.12 995.629 2376.48 996.686 2375.28 998.249C2374.18 999.811 2372.94 1001.28 2371.56 1002.66C2369.08 1001.37 2366.87 999.628 2364.94 997.421C2363.01 995.123 2361.58 992.641 2360.66 989.975C2356.34 993.009 2352.67 995.996 2349.63 998.938C2346.6 1001.79 2343.98 1005.01 2341.77 1008.59C2339.66 1012.08 2337.82 1016.13 2336.26 1020.73C2334.79 1025.32 2333.36 1030.79 2331.98 1037.13C2331.16 1037.04 2330.14 1036.72 2328.95 1036.17C2327.85 1035.71 2326.7 1035.11 2325.5 1034.38C2324.4 1033.64 2323.39 1032.86 2322.47 1032.03C2321.55 1031.2 2320.95 1030.42 2320.68 1029.69Z" fill="white"/>
<defs>
<filter id="filter0_d_2_37" x="0.910767" y="0.511597" width="1095.25" height="738.177" filterUnits="userSpaceOnUse" color-interpolation-filters="sRGB">
<feFlood flood-opacity="0" result="BackgroundImageFix"/>
<feColorMatrix in="SourceAlpha" type="matrix" values="0 0 0 0 0 0 0 0 0 0 0 0 0 0 0 0 0 0 127 0" result="hardAlpha"/>
<feOffset dx="399.887" dy="27.5784"/>
<feGaussianBlur stdDeviation="13.7892"/>
<feComposite in2="hardAlpha" operator="out"/>
<feColorMatrix type="matrix" values="0 0 0 0 0 0 0 0 0 0 0 0 0 0 0 0 0 0 0.25 0"/>
<feBlend mode="normal" in2="BackgroundImageFix" result="effect1_dropShadow_2_37"/>
<feBlend mode="normal" in="SourceGraphic" in2="effect1_dropShadow_2_37" result="shape"/>
</filter>
<filter id="filter1_d_2_37" x="441.89" y="192.709" width="966.119" height="759.857" filterUnits="userSpaceOnUse" color-interpolation-filters="sRGB">
<feFlood flood-opacity="0" result="BackgroundImageFix"/>
<feColorMatrix in="SourceAlpha" type="matrix" values="0 0 0 0 0 0 0 0 0 0 0 0 0 0 0 0 0 0 127 0" result="hardAlpha"/>
<feOffset dx="399.887" dy="27.5784"/>
<feGaussianBlur stdDeviation="13.7892"/>
<feComposite in2="hardAlpha" operator="out"/>
<feColorMatrix type="matrix" values="0 0 0 0 0 0 0 0 0 0 0 0 0 0 0 0 0 0 0.25 0"/>
<feBlend mode="normal" in2="BackgroundImageFix" result="effect1_dropShadow_2_37"/>
<feBlend mode="normal" in="SourceGraphic" in2="effect1_dropShadow_2_37" result="shape"/>
</filter>
<linearGradient id="paint0_linear_2_37" x1="334.31" y1="7.8316" x2="334.31" y2="655.924" gradientUnits="userSpaceOnUse">
<stop offset="0.389323" stop-color="#F4F4F4"/>
<stop offset="0.649038" stop-color="#F4F4F4"/>
<stop offset="0.716346" stop-color="#F4F4F4"/>
<stop offset="0.9999" stop-color="#F4F4F4"/>
<stop offset="1" stop-color="#8E8E8E"/>
</linearGradient>
<linearGradient id="paint1_linear_2_37" x1="715.601" y1="209.971" x2="715.601" y2="880.172" gradientUnits="userSpaceOnUse">
<stop offset="0.389323" stop-color="#F4F4F4"/>
<stop offset="0.649038" stop-color="#F4F4F4"/>
<stop offset="0.716346" stop-color="#F4F4F4"/>
<stop offset="0.9999" stop-color="#F4F4F4"/>
<stop offset="1" stop-color="#8E8E8E"/>
</linearGradient>
</defs>
</svg>
